<?xml version="1.0" encoding="UTF-8" standalone="no"?>
<!DOCTYPE svg PUBLIC "-//W3C//DTD SVG 1.1//EN" "http://www.w3.org/Graphics/SVG/1.1/DTD/svg11.dtd">
<svg width="100%" height="100%" viewBox="0 0 512 512" version="1.1" xmlns="http://www.w3.org/2000/svg" xmlns:xlink="http://www.w3.org/1999/xlink" xml:space="preserve" xmlns:serif="http://www.serif.com/" style="fill-rule:evenodd;clip-rule:evenodd;stroke-linejoin:round;stroke-miterlimit:2;">
    <path d="M35.42,188.21L243.17,457.67C246.228,461.657 250.976,463.998 256,463.998C261.024,463.998 265.772,461.657 268.83,457.67L476.58,188.21C480.753,182.777 481.132,175.287 477.53,169.46L407.06,55.71C404.113,50.929 398.886,48.006 393.27,48L118.73,48C113.114,48.006 107.887,50.929 104.94,55.71L34.47,169.46C30.868,175.287 31.247,182.777 35.42,188.21Z" style="fill:white;fill-rule:nonzero;"/>
    <path d="M100.589,93.114C101.332,91.914 102.682,91.228 104.09,91.333C105.497,91.439 106.729,92.319 107.285,93.617C113.456,108.014 127.891,141.696 133.474,154.724C133.975,155.893 133.856,157.236 133.155,158.299C132.455,159.361 131.268,160 129.995,160C116.127,160 80.843,160 65.95,160C64.576,160 63.311,159.256 62.643,158.056C61.975,156.857 62.009,155.389 62.732,154.222C71.115,140.69 91.963,107.039 100.589,93.114ZM315.458,153.944C316.318,155.091 316.457,156.625 315.815,157.908C315.174,159.19 313.864,160 312.43,160C289.712,160 222.288,160 199.57,160C198.136,160 196.826,159.19 196.185,157.908C195.543,156.625 195.682,155.091 196.542,153.944C208.858,137.522 242.659,92.455 252.972,78.704C253.687,77.751 254.809,77.19 256,77.19C257.191,77.19 258.313,77.751 259.028,78.704C269.341,92.455 303.142,137.522 315.458,153.944ZM449.268,154.222C449.991,155.389 450.025,156.857 449.357,158.056C448.689,159.256 447.424,160 446.051,160C431.158,160 395.873,160 382.005,160C380.732,160 379.545,159.361 378.845,158.299C378.144,157.236 378.025,155.894 378.526,154.724C384.109,141.696 398.544,108.014 404.715,93.617C405.271,92.319 406.503,91.439 407.91,91.333C409.318,91.228 410.668,91.914 411.411,93.114C420.037,107.039 440.885,140.69 449.268,154.222ZM350.774,138.243C350.242,139.485 349.087,140.349 347.746,140.51C346.404,140.671 345.078,140.104 344.267,139.023C333.565,124.753 303.933,85.244 292.542,70.056C291.682,68.909 291.544,67.375 292.185,66.092C292.826,64.81 294.136,64 295.57,64C313.936,64 360.545,64 376.852,64C378.125,64 379.312,64.639 380.012,65.701C380.713,66.764 380.833,68.107 380.331,69.276C374.197,83.59 357.265,123.097 350.774,138.243ZM167.733,139.023C166.922,140.104 165.596,140.671 164.254,140.51C162.912,140.349 161.758,139.485 161.226,138.243C154.735,123.098 137.803,83.591 131.669,69.276C131.168,68.107 131.288,66.764 131.988,65.702C132.688,64.64 133.875,64.001 135.148,64.001C151.455,64 198.064,64 216.43,64C217.863,64 219.174,64.81 219.815,66.093C220.456,67.375 220.318,68.909 219.458,70.056C208.067,85.244 178.435,124.753 167.733,139.023Z" style="fill:rgb(0,162,255);fill-opacity:0.7;"/>
    <path d="M260.599,436.124C260.016,438.19 258.131,439.617 255.985,439.617C253.838,439.617 251.953,438.189 251.371,436.123C237.011,385.138 193.518,230.715 184.33,198.093C183.924,196.648 184.217,195.096 185.123,193.9C186.029,192.703 187.443,192 188.944,192C213.048,192 298.95,192 323.055,192C324.556,192 325.97,192.703 326.876,193.9C327.783,195.097 328.076,196.649 327.669,198.093C318.476,230.717 274.965,385.139 260.599,436.124Z" style="fill:rgb(0,162,255);fill-opacity:0.55;"/>
    <path d="M145.289,192C147.321,192 149.132,193.281 149.809,195.197C156.937,215.382 195.998,325.988 214.671,378.862C215.455,381.082 214.511,383.543 212.443,384.668C210.376,385.794 207.797,385.252 206.358,383.388C169.393,335.527 87.293,229.223 64.51,199.723C63.393,198.277 63.196,196.321 64.001,194.68C64.807,193.039 66.476,192 68.304,192C88.209,192 132.681,192 145.289,192ZM305.818,383.912C304.382,385.778 301.804,386.325 299.734,385.203C297.665,384.081 296.716,381.622 297.496,379.401C316.112,326.4 355.085,215.446 362.195,195.205C362.869,193.285 364.682,192 366.717,192C379.338,192 423.828,192 443.719,192C445.545,192 447.212,193.038 448.019,194.676C448.826,196.314 448.631,198.269 447.518,199.716C424.792,229.258 342.742,335.914 305.818,383.912Z" style="fill:rgb(0,162,255);fill-opacity:0.28;"/>
</svg>
