<?xml version="1.0" encoding="UTF-8" standalone="no"?>
<!DOCTYPE svg PUBLIC "-//W3C//DTD SVG 1.1//EN" "http://www.w3.org/Graphics/SVG/1.1/DTD/svg11.dtd">
<svg width="100%" height="100%" viewBox="0 0 512 512" version="1.1" xmlns="http://www.w3.org/2000/svg" xmlns:xlink="http://www.w3.org/1999/xlink" xml:space="preserve" xmlns:serif="http://www.serif.com/" style="fill-rule:evenodd;clip-rule:evenodd;stroke-linejoin:round;stroke-miterlimit:2;">
    <g transform="matrix(1.1429,0,0,1.1429,-36.5818,-18.3024)">
        <path d="M35.42,188.21L243.17,457.67C246.228,461.657 250.976,463.998 256,463.998C261.024,463.998 265.772,461.657 268.83,457.67L476.58,188.21C480.753,182.777 481.132,175.287 477.53,169.46L407.06,55.71C404.113,50.929 398.886,48.006 393.27,48L118.73,48C113.114,48.006 107.887,50.929 104.94,55.71L34.47,169.46C30.868,175.287 31.247,182.777 35.42,188.21Z" style="fill:rgb(116,204,255);fill-rule:nonzero;"/>
    </g>
    <g transform="matrix(0.978726,-0.590179,0.590179,0.978726,-64.7887,171.211)">
        <path d="M358.458,54.919C359.305,51.798 362.138,49.632 365.372,49.632C368.606,49.632 371.439,51.798 372.286,54.919L389.873,119.704C390.835,123.247 392.707,126.477 395.303,129.073C397.899,131.669 401.129,133.54 404.672,134.502L469.457,152.09C472.578,152.937 474.744,155.77 474.744,159.004C474.744,162.237 472.578,165.07 469.457,165.917L404.672,183.505C401.129,184.467 397.899,186.339 395.303,188.935C392.707,191.531 390.835,194.76 389.873,198.303L372.286,263.088C371.439,266.209 368.606,268.376 365.372,268.376C362.138,268.376 359.305,266.209 358.458,263.088L340.871,198.303C339.909,194.76 338.037,191.531 335.441,188.935C332.845,186.339 329.615,184.467 326.072,183.505L261.287,165.917C258.166,165.07 256,162.237 256,159.004C256,155.77 258.166,152.937 261.287,152.09L326.072,134.502C329.615,133.54 332.845,131.669 335.441,129.073C338.037,126.477 339.909,123.247 340.871,119.704L358.458,54.919Z" style="fill:white;"/>
    </g>
</svg>
